grf
version=1
nRows=33
nColumns=19
inDegrees=yes
endheader
time	ground_force_2_vx	ground_force_2_vy	ground_force_2_vz	ground_force_2_px	ground_force_2_py	ground_force_2_pz	ground_moment_2_mx	ground_moment_2_my	ground_moment_2_mz	ground_force_3_vx	ground_force_3_vy	ground_force_3_vz	ground_force_3_px	ground_force_3_py	ground_force_3_pz	ground_moment_3_mx	ground_moment_3_my	ground_moment_3_mz
3.190833	0.000000	0.000000	0.000000	0.000000	0.000000	0.000000	0.000000	0.000000	0.000000	39.488079	143.239848	-6.554794	1.154143	0.000000	-0.300230	-0.000000	-1.151374	-0.000000
3.191667	0.000000	0.000000	0.000000	0.000000	0.000000	0.000000	0.000000	0.000000	0.000000	38.207370	139.418021	-6.379111	1.154016	0.000000	-0.300041	-0.000000	-1.118126	-0.000000
3.192500	0.000000	0.000000	0.000000	0.000000	0.000000	0.000000	0.000000	0.000000	0.000000	36.967300	135.679539	-6.206823	1.154586	0.000000	-0.299914	-0.000000	-1.086057	-0.000000
3.193333	0.000000	0.000000	0.000000	0.000000	0.000000	0.000000	0.000000	0.000000	0.000000	35.764579	132.024280	-6.037380	1.154492	0.000000	-0.299946	-0.000000	-1.054405	-0.000000
3.194167	0.000000	0.000000	0.000000	0.000000	0.000000	0.000000	0.000000	0.000000	0.000000	34.599248	128.450635	-5.872027	1.154780	0.000000	-0.299683	-0.000000	-1.023466	-0.000000
3.195000	0.000000	0.000000	0.000000	0.000000	0.000000	0.000000	0.000000	0.000000	0.000000	33.471135	124.955989	-5.710335	1.155479	0.000000	-0.299219	-0.000000	-0.993873	-0.000000
3.195833	0.000000	0.000000	0.000000	0.000000	0.000000	0.000000	0.000000	0.000000	0.000000	32.377416	121.539123	-5.550840	1.155479	0.000000	-0.299075	-0.000000	-0.964795	-0.000000
3.196667	0.000000	0.000000	0.000000	0.000000	0.000000	0.000000	0.000000	0.000000	0.000000	31.316214	118.198651	-5.394159	1.154325	0.000000	-0.299362	-0.000000	-0.935971	-0.000000
3.197500	0.000000	0.000000	0.000000	0.000000	0.000000	0.000000	0.000000	0.000000	0.000000	30.288119	114.931990	-5.241175	1.155506	0.000000	-0.298980	-0.000000	-0.908409	-0.000000
3.198333	0.000000	0.000000	0.000000	0.000000	0.000000	0.000000	0.000000	0.000000	0.000000	29.292664	111.737574	-5.090863	1.155704	0.000000	-0.299010	-0.000000	-0.881775	-0.000000
3.199167	0.000000	0.000000	0.000000	0.000000	0.000000	0.000000	0.000000	0.000000	0.000000	28.327646	108.614008	-4.942720	1.155848	0.000000	-0.298943	-0.000000	-0.855291	-0.000000
3.200000	0.000000	0.000000	0.000000	0.000000	0.000000	0.000000	0.000000	0.000000	0.000000	27.392526	105.559322	-4.797821	1.155709	0.000000	-0.298682	-0.000000	-0.829701	-0.000000
3.200833	0.000000	0.000000	0.000000	0.000000	0.000000	0.000000	0.000000	0.000000	0.000000	26.488240	102.571730	-4.656132	1.155764	0.000000	-0.298392	-0.000000	-0.805151	-0.000000
3.201667	0.000000	0.000000	0.000000	0.000000	0.000000	0.000000	0.000000	0.000000	0.000000	25.614155	99.649468	-4.516682	1.156890	0.000000	-0.298293	-0.000000	-0.780776	-0.000000
3.202500	0.000000	0.000000	0.000000	0.000000	0.000000	0.000000	0.000000	0.000000	0.000000	24.768918	96.791003	-4.380106	1.157525	0.000000	-0.298339	-0.000000	-0.756990	-0.000000
3.203333	0.000000	0.000000	0.000000	0.000000	0.000000	0.000000	0.000000	0.000000	0.000000	23.952917	93.994876	-4.247334	1.157070	0.000000	-0.298361	-0.000000	-0.734394	-0.000000
3.204167	0.000000	0.000000	0.000000	0.000000	0.000000	0.000000	0.000000	0.000000	0.000000	23.166777	91.259367	-4.117664	1.154731	0.000000	-0.298790	-0.000000	-0.712295	-0.000000
3.205000	0.000000	0.000000	0.000000	0.000000	0.000000	0.000000	0.000000	0.000000	0.000000	22.409470	88.582952	-3.990819	1.155627	0.000000	-0.298211	-0.000000	-0.690607	-0.000000
3.205833	0.000000	0.000000	0.000000	0.000000	0.000000	0.000000	0.000000	0.000000	0.000000	21.680258	85.964277	-3.867743	1.157709	0.000000	-0.297631	-0.000000	-0.669910	-0.000000
3.206667	0.000000	0.000000	0.000000	0.000000	0.000000	0.000000	0.000000	0.000000	0.000000	20.979699	83.401579	-3.748310	1.158379	0.000000	-0.297671	-0.000000	-0.649732	-0.000000
3.207500	0.000000	0.000000	0.000000	0.000000	0.000000	0.000000	0.000000	0.000000	0.000000	20.307743	80.893036	-3.631783	1.158567	0.000000	-0.297362	-0.000000	-0.629828	-0.000000
3.208333	0.000000	0.000000	0.000000	0.000000	0.000000	0.000000	0.000000	0.000000	0.000000	19.663484	78.437381	-3.518743	1.161493	0.000000	-0.296411	-0.000000	-0.610807	-0.000000
3.209167	0.000000	0.000000	0.000000	0.000000	0.000000	0.000000	0.000000	0.000000	0.000000	19.046694	76.033895	-3.409778	1.159590	0.000000	-0.297151	-0.000000	-0.592484	-0.000000
3.210000	0.000000	0.000000	0.000000	0.000000	0.000000	0.000000	0.000000	0.000000	0.000000	18.455300	73.687560	-3.304377	1.159212	0.000000	-0.296742	-0.000000	-0.574359	-0.000000
3.210833	0.000000	0.000000	0.000000	0.000000	0.000000	0.000000	0.000000	0.000000	0.000000	17.884430	71.408213	-3.202164	1.159834	0.000000	-0.296737	-0.000000	-0.556592	-0.000000
3.211667	0.000000	0.000000	0.000000	0.000000	0.000000	0.000000	0.000000	0.000000	0.000000	17.331218	69.199373	-3.103113	1.160363	0.000000	-0.296740	-0.000000	-0.539375	-0.000000
3.212500	0.000000	0.000000	0.000000	0.000000	0.000000	0.000000	0.000000	0.000000	0.000000	16.795119	67.058857	-3.007126	1.160789	0.000000	-0.296150	-0.000000	-0.522691	-0.000000
3.213333	0.000000	0.000000	0.000000	0.000000	0.000000	0.000000	0.000000	0.000000	0.000000	16.275603	64.984554	-2.914108	1.162221	0.000000	-0.295775	-0.000000	-0.506523	-0.000000
3.214167	0.000000	0.000000	0.000000	0.000000	0.000000	0.000000	0.000000	0.000000	0.000000	15.772156	62.974414	-2.823967	1.161446	0.000000	-0.296462	-0.000000	-0.490855	-0.000000
3.215000	0.000000	0.000000	0.000000	0.000000	0.000000	0.000000	0.000000	0.000000	0.000000	15.284283	61.026452	-2.736614	1.163704	0.000000	-0.295522	-0.000000	-0.475672	-0.000000
3.215833	0.000000	0.000000	0.000000	0.000000	0.000000	0.000000	0.000000	0.000000	0.000000	14.811500	59.138746	-2.651964	1.163798	0.000000	-0.295094	-0.000000	-0.460958	-0.000000
3.216667	0.000000	0.000000	0.000000	0.000000	0.000000	0.000000	0.000000	0.000000	0.000000	14.353342	57.309432	-2.569932	1.163102	0.000000	-0.295119	-0.000000	-0.446699	-0.000000
3.217500	0.000000	0.000000	0.000000	0.000000	0.000000	0.000000	0.000000	0.000000	0.000000	13.909356	55.536704	-2.490437	1.162775	0.000000	-0.295405	-0.000000	-0.432882	-0.000000
